<svg width="162.83mm" height="158.41mm" version="1.1" viewBox="0 0 162.83 158.41" xmlns="http://www.w3.org/2000/svg">
 <g transform="translate(-21.635 -38.932)">
  <path d="m103.05 38.932a81.414 79.206 0 0 0-81.414 79.206 81.414 79.206 0 0 0 81.414 79.206 81.414 79.206 0 0 0 81.414-79.206 81.414 79.206 0 0 0-81.414-79.206zm0 9.0997a71.952 70.106 0 0 1 71.952 70.106 71.952 70.106 0 0 1-71.952 70.106 71.952 70.106 0 0 1-71.952-70.106 71.952 70.106 0 0 1 71.952-70.106z"/>
  <path d="m102.49 80s-0.0106 47.88 0 65.728c0.0107 17.928 16.207 14.508 16.207 26.111 0 5.685-0.13826 12.411-0.3607 19.893 4.5152-0.8851 8.94-2.1606 13.221-3.8111-0.16047-5.9584-0.25528-11.371-0.25528-16.082 0-11.603 15.958-7.7414 16.207-26.111v-65.728h-7.2032v65.728c0 3.2719-5.3062 3.2719-5.3062 3.2719s-6.3986 0-6.3986-3.2719v-65.728h-7.2032v65.728c0 3.2719-6.3983 3.2719-6.3983 3.2719s-5.307 0-5.307-3.2719v-65.728z"/>
  <path d="m50.133 128.17 30.942-9.41-30.942-10.646v-8.0363l44.931 16.622v4.808l-44.931 14.699z" stroke-width="0" style="white-space:pre" aria-label="&gt;"/>
 </g>
</svg>
