<?xml version="1.0" encoding="UTF-8" standalone="no"?>
<!-- Created with Inkscape (http://www.inkscape.org/) -->

<svg
   width="210mm"
   height="297mm"
   viewBox="0 0 210 297"
   version="1.1"
   id="svg1"
   xml:space="preserve"
   inkscape:version="1.4.2 (ebf0e940d0, 2025-05-08)"
   sodipodi:docname="X-base-shapes.svg"
   xmlns:inkscape="http://www.inkscape.org/namespaces/inkscape"
   xmlns:sodipodi="http://sodipodi.sourceforge.net/DTD/sodipodi-0.dtd"
   xmlns="http://www.w3.org/2000/svg"
   xmlns:svg="http://www.w3.org/2000/svg"><sodipodi:namedview
     id="namedview1"
     pagecolor="#ffffff"
     bordercolor="#666666"
     borderopacity="1.0"
     inkscape:showpageshadow="2"
     inkscape:pageopacity="0.0"
     inkscape:pagecheckerboard="0"
     inkscape:deskcolor="#d1d1d1"
     inkscape:document-units="mm"
     inkscape:zoom="0.25864272"
     inkscape:cx="837.06201"
     inkscape:cy="440.76245"
     inkscape:window-width="957"
     inkscape:window-height="1025"
     inkscape:window-x="0"
     inkscape:window-y="26"
     inkscape:window-maximized="0"
     inkscape:current-layer="layer1" /><defs
     id="defs1">
	

		
		
		
		
		
	</defs><g
     inkscape:label="Layer 1"
     inkscape:groupmode="layer"
     id="layer1"><g
       style="fill:none"
       id="g1"
       transform="matrix(2.1108106,0,0,2.1108106,21.883935,53.992568)"><path
         fill-rule="evenodd"
         clip-rule="evenodd"
         d="M 2,6 C 2,4.34315 3.34315,3 5,3 h 14 c 1.6569,0 3,1.34315 3,3 v 9 c 0,1.6569 -1.3431,3 -3,3 h -6 v 1 h 2 c 0.5523,0 1,0.4477 1,1 0,0.5523 -0.4477,1 -1,1 H 9 C 8.44772,21 8,20.5523 8,20 8,19.4477 8.44772,19 9,19 h 2 V 18 H 5 C 3.34315,18 2,16.6569 2,15 Z M 5,5 C 4.44772,5 4,5.44772 4,6 v 9 c 0,0.5523 0.44772,1 1,1 h 14 c 0.5523,0 1,-0.4477 1,-1 V 6 C 20,5.44772 19.5523,5 19,5 Z"
         fill="#000000"
         id="path1" /></g><g
       id="g10"
       transform="matrix(0.93694983,0,0,0.93694983,-1.6893398,27.88284)"><path
         d="m 64.334891,128.49614 c -0.588797,1.0304 -0.566597,2.4311 0.635097,3.03196 1.489009,0.74449 2.355069,-0.57276 3.06511,-1.65253 0.611268,-0.92942 1.298216,-1.80454 2.085684,-2.59203 1.729014,-1.72903 4.175444,-3.3127 7.360245,-3.3127 3.184802,0 5.631231,1.58367 7.360246,3.3127 0.783587,0.78366 1.468207,1.65409 2.076952,2.57862 0.709652,1.07765 1.586773,2.40948 3.073803,1.66594 1.195756,-0.59787 1.221177,-2.00651 0.635136,-3.03196 -0.140883,-0.24649 -0.345997,-0.58802 -0.615925,-0.99295 -0.537915,-0.80658 -1.344401,-1.88271 -2.425665,-2.96399 -2.152051,-2.15203 -5.527219,-4.44943 -10.104547,-4.44943 -4.577327,0 -7.952495,2.2974 -10.104546,4.44943 -1.081265,1.08128 -1.887847,2.15741 -2.425568,2.96399 -0.269967,0.40493 -0.475159,0.74646 -0.616022,0.99295 z"
         fill="#0f0f0f"
         id="path1-2"
         style="stroke-width:1.94053" /><path
         d="m 74.524044,131.17588 c -0.386942,0.38071 -0.686754,0.76684 -0.888764,1.05755 -0.676469,0.97417 -1.594341,1.90225 -2.889064,1.21177 -1.072727,-0.57215 -1.236314,-1.91153 -0.652795,-2.88032 0.08305,-0.13789 0.201233,-0.32509 0.354147,-0.54521 0.303499,-0.43699 0.755643,-1.02113 1.355073,-1.61068 1.178098,-1.15891 3.095344,-2.49762 5.678192,-2.49762 2.582849,0 4.500095,1.3387 5.678386,2.49758 0.599431,0.58955 1.051575,1.17367 1.355074,1.61066 0.15272,0.22012 0.270898,0.40732 0.354147,0.54521 0.584683,0.97079 0.415856,2.31031 -0.652795,2.88034 -1.294917,0.69075 -2.212401,-0.23737 -2.889065,-1.21167 -0.202009,-0.29071 -0.501821,-0.67686 -0.888957,-1.05757 -0.794648,-0.78165 -1.788201,-1.38349 -2.95679,-1.38349 -1.168588,0 -2.162141,0.60182 -2.956789,1.38345 z"
         fill="#0f0f0f"
         id="path2"
         style="stroke-width:1.941;stroke-dasharray:none" /><path
         d="m 56.135171,153.07882 c -1.071717,0 -1.940532,0.86878 -1.940532,1.94054 0,1.07175 0.868815,1.94053 1.940532,1.94053 1.071717,0 1.940532,-0.86878 1.940532,-1.94053 0,-1.07176 -0.868815,-1.94054 -1.940532,-1.94054 z"
         fill="#0f0f0f"
         id="path3"
         style="stroke-width:1.94053" /><path
         d="m 60.016236,155.01936 c 0,-1.07176 0.868796,-1.94054 1.940532,-1.94054 1.071737,0 1.940533,0.86878 1.940533,1.94054 0,1.07175 -0.868796,1.94053 -1.940533,1.94053 -1.071736,0 -1.940532,-0.86878 -1.940532,-1.94053 z"
         fill="#0f0f0f"
         id="path4"
         style="stroke-width:1.94053" /><path
         d="m 65.837833,155.01936 c 0,-1.07176 0.868776,-1.94054 1.940532,-1.94054 1.071756,0 1.940533,0.86878 1.940533,1.94054 0,1.07175 -0.868777,1.94053 -1.940533,1.94053 -1.071756,0 -1.940532,-0.86878 -1.940532,-1.94053 z"
         fill="#0f0f0f"
         id="path5"
         style="stroke-width:1.94053" /><path
         fill-rule="evenodd"
         clip-rule="evenodd"
         d="m 75.540495,133.6735 c 0,-1.07174 0.868776,-1.94053 1.940532,-1.94053 1.071756,0 1.940533,0.86879 1.940533,1.94053 v 13.58373 h 5.821597 c 3.215268,0 5.821597,2.60633 5.821597,5.82159 v 3.88107 c 0,3.21527 -2.606329,5.8216 -5.821597,5.8216 H 54.194639 c -3.215172,0 -5.821598,-2.60633 -5.821598,-5.8216 v -3.88107 c 0,-3.21526 2.606426,-5.82159 5.821598,-5.82159 h 21.345856 z m 9.702662,17.46479 c 1.071756,0 1.940532,0.86878 1.940532,1.94053 v 3.88107 c 0,1.07175 -0.868776,1.94053 -1.940532,1.94053 H 54.194639 c -1.071718,0 -1.940533,-0.86878 -1.940533,-1.94053 v -3.88107 c 0,-1.07175 0.868815,-1.94053 1.940533,-1.94053 z"
         fill="#0f0f0f"
         id="path6"
         style="stroke-width:1.941;stroke-dasharray:none" /></g><g
       id="g9"
       transform="matrix(0.83335072,0,0,0.83335072,25.057012,-46.483599)"><g
         id="g8"><path
           style="fill:#030104;stroke-width:2.65729"
           d="m 179.2638,150.94532 c -1.45088,0 -5.23752,0 -7.18266,0 -0.63244,0 -1.04432,0 -1.04432,0 0,0 0,-1.512 0,-2.46331 0,-0.94866 -0.71215,-0.23385 -0.71215,-0.23385 0,0 -5.34647,4.02846 -5.90716,4.58915 -0.40923,0.40656 0.0452,0.79719 0.0452,0.79719 l 5.72115,4.73263 c 0,0 0.68293,0.72013 0.68293,-0.0585 0,-0.78124 0,-2.66792 0,-2.66792 0,0 0.45971,0 1.16389,0 2.01157,0 5.67332,0 7.16406,0 0,0 0.40391,0.10364 0.40391,-0.50754 0,-0.61649 0,-3.3163 0,-3.75476 0.003,-0.44376 -0.33482,-0.43313 -0.33482,-0.43313 z"
           id="path2-1" /><path
           style="fill:#030104;stroke-width:2.65729"
           d="m 157.79554,152.83731 c -0.56069,-0.56069 -5.90982,-4.58915 -5.90982,-4.58915 0,0 -0.7095,-0.71481 -0.7095,0.23385 0,0.94865 0,2.46331 0,2.46331 0,0 -0.41188,0 -1.04431,0 -1.94514,0 -5.73444,0 -7.18266,0 0,0 -0.33748,-0.0106 -0.33748,0.43048 0,0.43845 0,3.13826 0,3.75475 0,0.61118 0.40391,0.50754 0.40391,0.50754 1.49074,0 5.15249,0 7.16406,0 0.70418,0 1.16389,0 1.16389,0 0,0 0,1.88668 0,2.66793 0,0.77858 0.68027,0.0585 0.68027,0.0585 l 5.72115,-4.73264 c 0.005,0.003 0.46237,-0.38797 0.0505,-0.79453 z"
           id="path3-2" /><path
           style="fill:#030104;stroke-width:2.65729"
           d="m 161.60609,156.91625 c -0.40391,-0.40656 -0.79453,0.0478 -0.79453,0.0478 l -4.73263,5.72115 c 0,0 -0.72013,0.68027 0.0585,0.68027 0.78124,0 2.66792,0 2.66792,0 0,0 0,0.45971 0,1.16389 0,2.01157 0,5.67598 0,7.16406 0,0 -0.10629,0.40391 0.50754,0.40391 0.61649,0 3.3163,0 3.75475,0 0.44111,0 0.43048,-0.33747 0.43048,-0.33747 0,-1.44823 0,-5.23753 0,-7.18001 0,-0.63243 0,-1.04697 0,-1.04697 0,0 1.512,0 2.46331,0 0.946,0 0.23385,-0.7095 0.23385,-0.7095 0,0 -4.02846,-5.34647 -4.58915,-5.90716 z"
           id="path4-7" /><path
           style="fill:#030104;stroke-width:2.65729"
           d="m 156.07893,144.66082 4.73263,5.72115 c 0,0 0.38797,0.45705 0.79453,0.0478 0.56069,-0.56069 4.5918,-5.90716 4.5918,-5.90716 0,0 0.71482,-0.7095 -0.23384,-0.7095 -0.94865,0 -2.46331,0 -2.46331,0 0,0 0,-0.41188 0,-1.04431 0,-1.94514 0,-5.73178 0,-7.18266 0,0 0.0106,-0.33748 -0.43048,-0.33748 -0.43845,0 -3.13826,0 -3.75475,0 -0.61384,0 -0.50755,0.40391 -0.50755,0.40391 0,1.49074 0,5.15249 0,7.16406 0,0.70418 0,1.16389 0,1.16389 0,0 -1.88667,0 -2.66792,0 -0.78124,0 -0.0611,0.68027 -0.0611,0.68027 z"
           id="path5-0" /></g><circle
         style="fill:none;stroke:#000000;stroke-width:3.941;stroke-dasharray:none;stroke-opacity:1"
         id="path7"
         cx="161.10522"
         cy="153.67299"
         r="22.028999" /></g><path
       id="server--rack_1_"
       style="fill:#000000;stroke-width:3;stroke-dasharray:none"
       d="m 121.40622,154.85764 c -0.39247,0 -0.70958,0.32084 -0.70958,0.71331 v 18.97439 0.16192 10.52635 c 0,0.39247 0.31636,0.71331 0.70958,0.71331 h 43.43174 c 0.39321,0 0.71331,-0.3201 0.71331,-0.71331 v -10.52635 -0.16192 -18.97439 c 0,-0.39322 -0.32084,-0.71331 -0.71331,-0.71331 z m 0.71331,1.42274 h 42.00885 v 8.44812 h -42.00885 z m 3.23498,2.52562 v 1.42274 h 1.97414 V 158.806 Z m 3.94836,0 v 1.42274 h 1.97414 V 158.806 Z m 3.94828,0 v 1.42274 h 1.97422 V 158.806 Z m 15.79337,0 v 1.42274 h 11.845 V 158.806 Z m -26.92499,7.34525 h 42.00885 v 8.39409 0.0522 h -42.00885 v -0.0522 z m 3.23498,2.52554 v 1.42282 h 1.97414 v -1.42282 z m 3.94836,0 v 1.42282 h 1.97414 v -1.42282 z m 3.94828,0 v 1.42282 h 1.97422 v -1.42282 z m 15.79337,0 v 1.42282 h 11.845 v -1.42282 z m -26.92499,7.39926 h 42.00885 v 8.44805 h -42.00885 z m 3.23498,2.52555 v 1.42281 h 1.97414 v -1.42281 z m 3.94836,0 v 1.42281 h 1.97414 v -1.42281 z m 3.94828,0 v 1.42281 h 1.97422 v -1.42281 z m 15.79337,0 v 1.42281 h 11.845 v -1.42281 z" /></g></svg>
